<svg width="305" height="48" viewBox="0 0 305 48" fill="none" xmlns="http://www.w3.org/2000/svg">
<path d="M20.52 3.736L19.704 9.35199H7.992V17.32H18.216V22.84H7.992V31.336H20.52V37H0.119995V3.736H20.52Z" fill="black"/>
<path d="M38.5969 10.792C39.5249 10.792 40.3729 10.904 41.1409 11.128L39.9409 18.472C38.9809 18.248 38.2129 18.136 37.6369 18.136C36.1329 18.136 34.9809 18.664 34.1809 19.72C33.4129 20.744 32.8049 22.296 32.3569 24.376V37H24.7729V11.512H31.3969L32.0209 16.456C32.5969 14.696 33.4609 13.32 34.6129 12.328C35.7969 11.304 37.1249 10.792 38.5969 10.792Z" fill="black"/>
<path d="M58.1025 37.048C57.0785 40.344 55.3985 42.872 53.0625 44.632C50.7585 46.424 47.6545 47.432 43.7505 47.656L42.9345 42.328C45.3665 42.008 47.1585 41.464 48.3105 40.696C49.4945 39.928 50.4385 38.696 51.1425 37H48.5505L40.7745 11.512H48.8385L53.3985 32.152L58.3905 11.512H66.2145L58.1025 37.048Z" fill="black"/>
<path d="M79.5472 10.696C81.3073 10.696 82.8913 10.952 84.2992 11.464C85.7072 11.976 87.0352 12.76 88.2832 13.816L85.0192 18.328C83.4193 17.112 81.8032 16.504 80.1712 16.504C78.4752 16.504 77.1952 17.128 76.3312 18.376C75.4672 19.624 75.0352 21.64 75.0352 24.424C75.0352 27.112 75.4672 29.016 76.3312 30.136C77.1952 31.256 78.4433 31.816 80.0752 31.816C80.9392 31.816 81.7232 31.688 82.4272 31.432C83.1312 31.144 83.9792 30.696 84.9712 30.088L88.2832 34.792C85.7552 36.808 82.8912 37.816 79.6912 37.816C77.0992 37.816 74.8592 37.272 72.9712 36.184C71.0832 35.064 69.6273 33.512 68.6032 31.528C67.5792 29.512 67.0672 27.16 67.0672 24.472C67.0672 21.784 67.5792 19.4 68.6032 17.32C69.6273 15.24 71.0832 13.624 72.9712 12.472C74.8592 11.288 77.0512 10.696 79.5472 10.696Z" fill="black"/>
<path d="M99.06 0.567993V37H91.476V1.38399L99.06 0.567993ZM114.804 11.512L107.076 22.696L115.428 37H106.884L99.3 23.08L107.076 11.512H114.804Z" fill="black"/>
<path d="M132.024 37.048C131 40.344 129.32 42.872 126.984 44.632C124.68 46.424 121.576 47.432 117.672 47.656L116.856 42.328C119.288 42.008 121.08 41.464 122.232 40.696C123.416 39.928 124.36 38.696 125.064 37H122.472L114.696 11.512H122.76L127.32 32.152L132.312 11.512H140.136L132.024 37.048Z" fill="black"/>
<path d="M165.283 24.28H162.211V37H154.339V3.736H165.235C169.779 3.736 173.187 4.568 175.459 6.23199C177.763 7.89599 178.915 10.44 178.915 13.864C178.915 16.008 178.403 17.8 177.379 19.24C176.355 20.648 174.739 21.848 172.531 22.84L180.979 37H172.099L165.283 24.28ZM162.211 18.856H165.523C167.283 18.856 168.595 18.456 169.459 17.656C170.355 16.856 170.803 15.592 170.803 13.864C170.803 12.264 170.323 11.096 169.363 10.36C168.435 9.624 166.995 9.256 165.043 9.256H162.211V18.856Z" fill="black"/>
<path d="M203.607 29.608C203.607 30.568 203.735 31.272 203.991 31.72C204.279 32.168 204.727 32.504 205.335 32.728L203.751 37.672C202.183 37.544 200.903 37.208 199.911 36.664C198.919 36.088 198.151 35.192 197.607 33.976C195.943 36.536 193.383 37.816 189.927 37.816C187.399 37.816 185.383 37.08 183.879 35.608C182.375 34.136 181.623 32.216 181.623 29.848C181.623 27.064 182.647 24.936 184.695 23.464C186.743 21.992 189.703 21.256 193.575 21.256H196.167V20.152C196.167 18.648 195.847 17.624 195.207 17.08C194.567 16.504 193.447 16.216 191.847 16.216C191.015 16.216 190.007 16.344 188.823 16.6C187.639 16.824 186.423 17.144 185.175 17.56L183.447 12.568C185.047 11.96 186.679 11.496 188.343 11.176C190.039 10.856 191.607 10.696 193.047 10.696C196.695 10.696 199.367 11.448 201.063 12.952C202.759 14.456 203.607 16.712 203.607 19.72V29.608ZM192.135 32.392C193.863 32.392 195.207 31.576 196.167 29.944V25.432H194.295C192.567 25.432 191.271 25.736 190.407 26.344C189.575 26.952 189.159 27.896 189.159 29.176C189.159 30.2 189.415 31 189.927 31.576C190.471 32.12 191.207 32.392 192.135 32.392Z" fill="black"/>
<path d="M223.009 37.048C221.985 40.344 220.305 42.872 217.969 44.632C215.665 46.424 212.561 47.432 208.657 47.656L207.841 42.328C210.273 42.008 212.065 41.464 213.217 40.696C214.401 39.928 215.345 38.696 216.049 37H213.457L205.681 11.512H213.745L218.305 32.152L223.297 11.512H231.121L223.009 37.048Z" fill="black"/>
<path d="M248.716 10.696C250.924 10.696 252.652 11.368 253.9 12.712C255.148 14.056 255.772 15.944 255.772 18.376V37H248.188V19.672C248.188 18.392 247.98 17.512 247.564 17.032C247.18 16.52 246.589 16.264 245.788 16.264C244.253 16.264 242.781 17.368 241.372 19.576V37H233.788V11.512H240.412L240.94 14.536C242.028 13.256 243.196 12.296 244.444 11.656C245.724 11.016 247.148 10.696 248.716 10.696Z" fill="black"/>
<path d="M283.716 23.752C283.716 24.808 283.668 25.72 283.572 26.488H267.78C268.036 28.632 268.644 30.136 269.604 31C270.564 31.864 271.892 32.296 273.588 32.296C274.612 32.296 275.604 32.12 276.564 31.768C277.524 31.384 278.564 30.808 279.684 30.04L282.804 34.264C279.828 36.632 276.516 37.816 272.868 37.816C268.74 37.816 265.572 36.6 263.364 34.168C261.156 31.736 260.052 28.472 260.052 24.376C260.052 21.784 260.516 19.464 261.444 17.416C262.372 15.336 263.732 13.704 265.524 12.52C267.316 11.304 269.46 10.696 271.956 10.696C275.636 10.696 278.516 11.848 280.596 14.152C282.676 16.456 283.716 19.656 283.716 23.752ZM276.276 21.592C276.212 17.688 274.836 15.736 272.148 15.736C270.836 15.736 269.812 16.216 269.076 17.176C268.372 18.136 267.94 19.72 267.78 21.928H276.276V21.592Z" fill="black"/>
<path d="M301.8 10.792C302.728 10.792 303.576 10.904 304.344 11.128L303.144 18.472C302.184 18.248 301.416 18.136 300.84 18.136C299.336 18.136 298.184 18.664 297.384 19.72C296.616 20.744 296.008 22.296 295.56 24.376V37H287.976V11.512H294.6L295.224 16.456C295.8 14.696 296.664 13.32 297.816 12.328C299 11.304 300.328 10.792 301.8 10.792Z" fill="black"/>
</svg>
