<svg width="141" height="48" viewBox="0 0 141 48" fill="none" xmlns="http://www.w3.org/2000/svg">
<path d="M20.52 3.736L19.704 9.35199H7.992V17.32H18.216V22.84H7.992V31.336H20.52V37H0.119995V3.736H20.52Z" fill="#141414"/>
<path d="M38.5969 10.792C39.5249 10.792 40.3729 10.904 41.1409 11.128L39.9409 18.472C38.9809 18.248 38.2129 18.136 37.6369 18.136C36.1329 18.136 34.9809 18.664 34.1809 19.72C33.4129 20.744 32.8049 22.296 32.3569 24.376V37H24.7729V11.512H31.3969L32.0209 16.456C32.5969 14.696 33.4609 13.32 34.6129 12.328C35.7969 11.304 37.1249 10.792 38.5969 10.792Z" fill="#141414"/>
<path d="M58.1025 37.048C57.0785 40.344 55.3985 42.872 53.0625 44.632C50.7585 46.424 47.6545 47.432 43.7505 47.656L42.9345 42.328C45.3665 42.008 47.1585 41.464 48.3105 40.696C49.4945 39.928 50.4385 38.696 51.1425 37H48.5505L40.7745 11.512H48.8385L53.3985 32.152L58.3905 11.512H66.2145L58.1025 37.048Z" fill="#141414"/>
<path d="M79.5472 10.696C81.3072 10.696 82.8912 10.952 84.2992 11.464C85.7072 11.976 87.0352 12.76 88.2832 13.816L85.0192 18.328C83.4192 17.112 81.8032 16.504 80.1712 16.504C78.4752 16.504 77.1952 17.128 76.3312 18.376C75.4672 19.624 75.0352 21.64 75.0352 24.424C75.0352 27.112 75.4672 29.016 76.3312 30.136C77.1952 31.256 78.4432 31.816 80.0752 31.816C80.9392 31.816 81.7232 31.688 82.4272 31.432C83.1312 31.144 83.9792 30.696 84.9712 30.088L88.2832 34.792C85.7552 36.808 82.8912 37.816 79.6912 37.816C77.0992 37.816 74.8592 37.272 72.9712 36.184C71.0832 35.064 69.6272 33.512 68.6032 31.528C67.5792 29.512 67.0672 27.16 67.0672 24.472C67.0672 21.784 67.5792 19.4 68.6032 17.32C69.6272 15.24 71.0832 13.624 72.9712 12.472C74.8592 11.288 77.0512 10.696 79.5472 10.696Z" fill="#141414"/>
<path d="M99.06 0.567993V37H91.476V1.38399L99.06 0.567993ZM114.804 11.512L107.076 22.696L115.428 37H106.884L99.3 23.08L107.076 11.512H114.804Z" fill="#141414"/>
<path d="M132.024 37.048C131 40.344 129.32 42.872 126.984 44.632C124.68 46.424 121.576 47.432 117.672 47.656L116.856 42.328C119.288 42.008 121.08 41.464 122.232 40.696C123.416 39.928 124.36 38.696 125.064 37H122.472L114.696 11.512H122.76L127.32 32.152L132.312 11.512H140.136L132.024 37.048Z" fill="#141414"/>
</svg>
